<svg xmlns="http://www.w3.org/2000/svg" x="0px" y="0px"
width="60" height="60"
viewBox="0 0 172 172"
style=" fill:#000000;"><g fill="none" fill-rule="nonzero" stroke="none" stroke-width="1" stroke-linecap="butt" stroke-linejoin="miter" stroke-miterlimit="10" stroke-dasharray="" stroke-dashoffset="0" font-family="none" font-weight="none" font-size="none" text-anchor="none" style="mix-blend-mode: normal"><path d="M0,172v-172h172v172z" fill="none"></path><g fill="#fff118"><path d="M70.78085,0.0007c-1.07191,-0.01402 -2.16245,0.1055 -3.25128,0.3702c-7.11582,1.727 -11.44052,8.28748 -10.06106,15.2564l5.26252,27.01239c0.19886,1.02115 0.93832,1.85192 1.92866,2.17009c7.08465,2.27592 12.03913,8.42115 13.09611,14.76304l6.57465,34.44639c2.40024,12.21155 -6.85453,23.24325 -18.84429,23.52667c-1.12183,0.02651 -2.11406,0.6944 -2.57877,1.71592c-3.83523,8.42683 -13.25198,12.26985 -21.57562,9.947c-2.01794,-0.56325 -3.91971,1.2166 -3.5417,3.27717l0.345,1.88177c1.41886,7.74284 5.62488,14.66112 11.84136,19.48741c4.70088,3.64748 8.05109,8.84696 9.43054,14.63707l0.31211,1.30373c0.30814,1.29346 1.46161,2.20368 2.78731,2.20368c0.17198,0 11.07896,-0.01103 50.32632,-0.01819c1.37229,-0.00036 2.55165,-0.97054 2.81321,-2.31775c0.17485,-0.88464 -0.52648,-9.89697 6.84337,-17.68961l11.93514,-12.61884c8.45227,-8.93598 10.39273,-22.31642 4.82584,-33.28682c-7.96033,-15.68561 -22.42149,-44.21296 -22.51895,-44.37169c-2.35832,-4.09787 -7.60735,-5.54371 -11.96033,-2.98116c-0.02866,0.01433 -0.0533,0.02897 -0.07838,0.04689c-6.66042,4.02477 -10.8617,11.78282 -10.44106,19.95347c0.31065,6.84566 2.75849,9.63372 10.51244,22.358c-11.04672,6.51173 -17.65692,18.14021 -18.21587,29.99704c-0.08957,1.48336 -1.32198,2.64047 -2.81251,2.66555c-1.67326,0.02866 -3.00294,-1.37928 -2.90978,-3.05254c0.65605,-11.81133 6.09241,-22.3757 14.39634,-29.72692c1.03441,-0.91545 1.26285,-2.43916 0.54375,-3.61868c-1.00431,-1.64746 -2.05383,-3.36921 -3.25199,-5.3395c-6.12189,-10.09042 -5.05668,-22.66236 1.85168,-31.54711c0.54103,-0.69582 0.74806,-1.59367 0.54025,-2.45001l-11.66151,-48.05335c-1.43539,-5.91116 -6.67521,-9.87198 -12.46348,-9.9477zM126.53133,12.0541c-5.54233,0.07302 -10.6336,3.70909 -12.29763,9.32767l-7.88188,26.65619c-0.55178,1.86495 0.87466,3.70797 2.8195,3.67536c5.12439,-0.08563 9.89326,2.59532 12.51457,7.0995c0.16052,0.27911 -0.17926,-0.39057 3.22959,6.33111c1.19994,2.36585 4.69423,1.97533 5.33809,-0.59833l9.08624,-36.31696c1.69834,-6.78618 -2.22877,-13.655 -8.93648,-15.63639c-1.29048,-0.38199 -2.59301,-0.555 -3.87201,-0.53815zM58.90449,49.59222c-1.1434,-0.01484 -2.29801,0.11491 -3.44233,0.39259c-6.951,1.68759 -11.46212,8.53443 -10.26541,15.5965l0.09657,0.55984c0.1856,1.07382 0.96861,1.93579 2.00983,2.25826c6.4329,1.9925 11.19779,7.45218 12.4264,14.02195c0.00645,0.03225 3.5183,19.25044 4.54662,26.71847c0.2243,1.62919 1.76975,2.73375 3.38425,2.42132c7.50565,-1.45219 12.56885,-8.74391 11.04429,-16.43767l-6.57815,-34.47578c-0.07309,-0.14654 -0.69615,-5.46838 -6.06239,-8.89659c-2.18249,-1.39423 -4.6442,-2.12625 -7.15968,-2.15889zM42.13512,73.33303c-1.10134,-0.01961 -2.23775,0.10192 -3.39125,0.38139c-6.00151,1.45469 -9.95682,7.37777 -9.00016,13.4796c0.63419,4.05236 3.77286,22.9455 4.36047,26.63239c1.09066,6.84279 7.71343,11.74145 15.27389,9.9281c6.16633,-1.49769 10.32957,-7.62509 9.30878,-13.92327c-4.31822,-26.64455 -4.59001,-26.31734 -4.59001,-26.35317c-1.08863,-5.80868 -6.01448,-10.03913 -11.96173,-10.14504z"></path></g></g></svg>