<svg width="68" height="77" viewBox="0 0 68 77" fill="none" xmlns="http://www.w3.org/2000/svg">
<path d="M67.3334 76.9999L49.8334 60.3333L51.9334 66.9999H9.00002C6.78988 66.9999 4.67027 66.1219 3.10746 64.5591C1.54466 62.9963 0.666687 60.8767 0.666687 58.6666V8.66658C0.666687 6.45645 1.54466 4.33683 3.10746 2.77403C4.67027 1.21123 6.78988 0.333252 9.00002 0.333252H59C61.2102 0.333252 63.3298 1.21123 64.8926 2.77403C66.4554 4.33683 67.3334 6.45645 67.3334 8.66658V76.9999ZM34 19.6666C25.0667 19.6666 18.8 23.4999 18.8 23.4999C22.2334 20.4333 28.2334 18.6666 28.2334 18.6666L27.6667 18.0999C22.0334 18.1999 16.9334 22.0999 16.9334 22.0999C11.2 34.0666 11.5667 44.3999 11.5667 44.3999C16.2334 50.4333 23.1667 49.9999 23.1667 49.9999L25.5334 46.9999C21.3667 46.0999 18.7334 42.3999 18.7334 42.3999C18.7334 42.3999 25 46.6666 34 46.6666C43 46.6666 49.2667 42.3999 49.2667 42.3999C49.2667 42.3999 46.6334 46.0999 42.4667 46.9999L44.8334 49.9999C44.8334 49.9999 51.7667 50.4333 56.4334 44.3999C56.4334 44.3999 56.8 34.0666 51.0667 22.0999C51.0667 22.0999 45.9667 18.1999 40.3334 18.0999L39.7667 18.6666C39.7667 18.6666 45.7667 20.4333 49.2 23.4999C49.2 23.4999 42.9334 19.6666 34 19.6666ZM27.1 32.2999C29.2667 32.2999 31.0334 34.1999 31 36.5332C31 38.8332 29.2667 40.7666 27.1 40.7666C24.9667 40.7666 23.2334 38.8332 23.2334 36.5332C23.2334 34.1999 24.9334 32.2999 27.1 32.2999ZM41 32.2999C43.1667 32.2999 44.9 34.1999 44.9 36.5332C44.9 38.8332 43.1667 40.7666 41 40.7666C38.8667 40.7666 37.1334 38.8332 37.1334 36.5332C37.1334 34.1999 38.8334 32.2999 41 32.2999Z" fill="#FFF118"/>
</svg>
