<svg width="62" height="62" viewBox="0 0 62 62" fill="none" xmlns="http://www.w3.org/2000/svg">
<path d="M60.8234 18.6832C60.7898 16.1586 60.3172 13.6591 59.4267 11.2965C58.6545 9.3037 57.4752 7.49385 55.964 5.98263C54.4527 4.4714 52.6429 3.29203 50.6501 2.51986C48.3178 1.64438 45.854 1.17099 43.3634 1.11986C40.1567 0.976524 39.1401 0.936523 31.0001 0.936523C22.8601 0.936523 21.8167 0.936524 18.6334 1.11986C16.1439 1.17137 13.6812 1.64475 11.3501 2.51986C9.35691 3.29149 7.54679 4.47067 6.03549 5.98197C4.5242 7.49326 3.34502 9.30339 2.57338 11.2965C1.69615 13.627 1.2238 16.0902 1.17672 18.5799C1.03338 21.7899 0.990051 22.8065 0.990051 30.9465C0.990051 39.0865 0.990051 40.1265 1.17672 43.3132C1.22672 45.8065 1.69672 48.2665 2.57338 50.6032C3.34631 52.5957 4.52637 54.4051 6.03817 55.9158C7.54997 57.4264 9.36026 58.6051 11.3534 59.3765C13.6782 60.2872 16.1413 60.7945 18.6367 60.8765C21.8467 61.0199 22.8634 61.0632 31.0034 61.0632C39.1434 61.0632 40.1867 61.0632 43.3701 60.8765C45.8606 60.8275 48.3246 60.3552 50.6567 59.4799C52.649 58.7068 54.4584 57.5271 55.9695 56.016C57.4806 54.5049 58.6603 52.6955 59.4334 50.7032C60.3101 48.3699 60.78 45.9099 60.83 43.4132C60.9734 40.2065 61.0167 39.1899 61.0167 31.0465C61.01 22.9065 61.0101 21.8732 60.8234 18.6832ZM30.9801 46.3399C22.4667 46.3399 15.57 39.4432 15.57 30.9299C15.57 22.4165 22.4667 15.5199 30.9801 15.5199C35.067 15.5199 38.9866 17.1434 41.8766 20.0333C44.7665 22.9233 46.3901 26.8429 46.3901 30.9299C46.3901 35.0168 44.7665 38.9364 41.8766 41.8264C38.9866 44.7163 35.067 46.3399 30.9801 46.3399ZM47.0034 18.5432C46.5314 18.5436 46.0639 18.451 45.6278 18.2706C45.1916 18.0901 44.7953 17.8255 44.4615 17.4917C44.1278 17.1579 43.8631 16.7616 43.6827 16.3255C43.5023 15.8893 43.4096 15.4219 43.41 14.9499C43.41 14.4782 43.503 14.0111 43.6834 13.5754C43.8639 13.1396 44.1285 12.7437 44.462 12.4102C44.7955 12.0766 45.1915 11.8121 45.6272 11.6316C46.063 11.4511 46.5301 11.3582 47.0017 11.3582C47.4734 11.3582 47.9404 11.4511 48.3762 11.6316C48.8119 11.8121 49.2079 12.0766 49.5414 12.4102C49.8749 12.7437 50.1395 13.1396 50.32 13.5754C50.5005 14.0111 50.5934 14.4782 50.5934 14.9499C50.5934 16.9365 48.9867 18.5432 47.0034 18.5432Z" fill="#FFF118"/>
<path d="M30.9801 40.9401C36.5085 40.9401 40.9901 36.4585 40.9901 30.9301C40.9901 25.4018 36.5085 20.9201 30.9801 20.9201C25.4517 20.9201 20.9701 25.4018 20.9701 30.9301C20.9701 36.4585 25.4517 40.9401 30.9801 40.9401Z" fill="#FFF118"/>
</svg>
