<svg width="76" height="62" viewBox="0 0 76 62" fill="none" xmlns="http://www.w3.org/2000/svg">
<path d="M75.81 7.45684C73.0267 8.69018 70.0367 9.52351 66.8933 9.90018C70.1367 7.95948 72.5632 4.90506 73.72 1.30684C70.6728 3.11681 67.3378 4.39083 63.86 5.07351C61.5213 2.57639 58.4236 0.921263 55.0478 0.365089C51.672 -0.191085 48.207 0.382814 45.1908 1.99768C42.1746 3.61256 39.7759 6.17805 38.3672 9.29585C36.9585 12.4137 36.6185 15.9093 37.4 19.2402C31.2256 18.9302 25.1854 17.3253 19.6714 14.5299C14.1574 11.7344 9.29282 7.81071 5.39335 3.01351C4.06002 5.31351 3.29335 7.98018 3.29335 10.8202C3.29186 13.3768 3.92146 15.8943 5.12628 18.1493C6.3311 20.4043 8.07389 22.327 10.2 23.7468C7.73427 23.6684 5.32293 23.0021 3.16669 21.8035V22.0035C3.16644 25.5893 4.40679 29.0648 6.6773 31.8402C8.9478 34.6156 12.1086 36.5199 15.6234 37.2302C13.336 37.8492 10.9378 37.9404 8.61002 37.4968C9.60168 40.5822 11.5333 43.2803 14.1346 45.2133C16.7358 47.1463 19.8764 48.2174 23.1167 48.2768C17.6161 52.5949 10.823 54.9371 3.83002 54.9268C2.59129 54.9272 1.35361 54.8548 0.123352 54.7102C7.22161 59.2741 15.4845 61.6962 23.9234 61.6868C52.49 61.6868 68.1067 38.0268 68.1067 17.5068C68.1067 16.8402 68.09 16.1668 68.06 15.5002C71.0977 13.3034 73.7197 10.5832 75.8034 7.46684L75.81 7.45684Z" fill="#FFF118"/>
</svg>
